<svg xmlns="http://www.w3.org/2000/svg" width="512" height="512" viewBox="0 0 512 512">
  <defs>
    <linearGradient id="tile" x1="0" y1="0" x2="0" y2="1">
      <stop offset="0" stop-color="#1e2533"/>
      <stop offset="1" stop-color="#0d1017"/>
    </linearGradient>
    <linearGradient id="goo" x1="0" y1="0" x2="0" y2="1">
      <stop offset="0" stop-color="#86bdff"/>
      <stop offset="0.55" stop-color="#4b8fdc"/>
      <stop offset="1" stop-color="#2f5fc4"/>
    </linearGradient>
    <linearGradient id="back" x1="0" y1="0" x2="0" y2="1">
      <stop offset="0" stop-color="#3d6399"/>
      <stop offset="1" stop-color="#27416c"/>
    </linearGradient>
  </defs>
  <rect x="28" y="28" width="456" height="456" rx="108" fill="url(#tile)"/>
  <rect x="29.5" y="29.5" width="453" height="453" rx="106.5" fill="none" stroke="#ffffff" stroke-opacity="0.14" stroke-width="3"/>
  <path d="M132 104 H202 C217 104 226 110 234 121 L247 139 H380 C396 139 408 151 408 167 V300 H104 V132 C104 116 116 104 132 104 Z" fill="url(#back)"/>
  <path d="M104 196 C104 180 116 168 132 168 H380 C396 168 408 180 408 196 V318 C408 336 396 346 380 348 C366 350 360 358 359 370 C358 390 350 402 338 402 C326 402 318 390 317 370 C316 358 310 350 296 350 H262 C247 350 240 360 239 376 C238 408 228 434 210 434 C192 434 182 408 181 376 C180 360 173 350 158 350 H134 C117 350 104 338 104 320 Z" fill="url(#goo)"/>
  <path d="M134 184 H378 C388 184 394 190 395 198" fill="none" stroke="#ffffff" stroke-opacity="0.6" stroke-width="8" stroke-linecap="round"/>
  <circle cx="210" cy="462" r="12" fill="#4b8fdc"/>
</svg>
